HIERARCHY
ROOT Hips
{
	OFFSET 0.000000 0.000000 0.000000
	CHANNELS 6 Xposition Yposition Zposition Xrotation Yrotation Zrotation
	JOINT Spine
	{
		OFFSET 0.000000 0.042231 0.063346
		CHANNELS 3 Xrotation Yrotation Zrotation
		JOINT Spine1
		{
			OFFSET 0.000000 0.014667 0.083179
			CHANNELS 3 Xrotation Yrotation Zrotation
			JOINT Spine2
			{
				OFFSET 0.000000 0.007361 0.084141
				CHANNELS 3 Xrotation Yrotation Zrotation
				JOINT Spine3
				{
					OFFSET 0.000000 0.000000 0.084462
					CHANNELS 3 Xrotation Yrotation Zrotation
					JOINT Neck
					{
						OFFSET 0.000000 -0.031673 0.221713
						CHANNELS 3 Xrotation Yrotation Zrotation
						JOINT Head
						{
							OFFSET 0.000000 -0.020167 0.114371
							CHANNELS 3 Xrotation Yrotation Zrotation
							End Site
							{
								OFFSET 0.000000 0.000000 0.000000
							}
						}
					}
					JOINT RightShoulder
					{
						OFFSET -0.029161 -0.048602 0.157471
						CHANNELS 3 Xrotation Yrotation Zrotation
						JOINT RightArm
						{
							OFFSET -0.144834 0.000000 0.000000
							CHANNELS 3 Xrotation Yrotation Zrotation
							JOINT RightForeArm
							{
								OFFSET -0.274949 0.000000 0.000000
								CHANNELS 3 Xrotation Yrotation Zrotation
								JOINT RightHand
								{
									OFFSET -0.254725 0.000000 0.000000
									CHANNELS 3 Xrotation Yrotation Zrotation
									JOINT RightHandEnd
									{
										OFFSET -0.068160 0.000000 0.000000
										CHANNELS 3 Xrotation Yrotation Zrotation
										End Site
										{
											OFFSET 0.000000 0.000000 0.000000
										}
									}
									JOINT RightHandThumb1
									{
										OFFSET -0.027264 -0.045440 -0.018176
										CHANNELS 3 Xrotation Yrotation Zrotation
										End Site
										{
											OFFSET 0.000000 0.000000 0.000000
										}
									}
								}
							}
						}
					}
					JOINT LeftShoulder
					{
						OFFSET 0.029161 -0.048602 0.157471
						CHANNELS 3 Xrotation Yrotation Zrotation
						JOINT LeftArm
						{
							OFFSET 0.144834 0.000000 0.000000
							CHANNELS 3 Xrotation Yrotation Zrotation
							JOINT LeftForeArm
							{
								OFFSET 0.274949 0.000000 0.000000
								CHANNELS 3 Xrotation Yrotation Zrotation
								JOINT LeftHand
								{
									OFFSET 0.254725 0.000000 0.000000
									CHANNELS 3 Xrotation Yrotation Zrotation
									JOINT LeftHandEnd
									{
										OFFSET 0.068160 0.000000 0.000000
										CHANNELS 3 Xrotation Yrotation Zrotation
										End Site
										{
											OFFSET 0.000000 0.000000 0.000000
										}
									}
									JOINT LeftHandThumb1
									{
										OFFSET 0.027264 -0.045440 -0.018176
										CHANNELS 3 Xrotation Yrotation Zrotation
										End Site
										{
											OFFSET 0.000000 0.000000 0.000000
										}
									}
								}
							}
						}
					}
				}
			}
		}
	}
	JOINT RightUpLeg
	{
		OFFSET -0.086512 0.000000 -0.025273
		CHANNELS 3 Xrotation Yrotation Zrotation
		JOINT RightLeg
		{
			OFFSET 0.000000 0.000000 -0.433119
			CHANNELS 3 Xrotation Yrotation Zrotation
			JOINT RightFoot
			{
				OFFSET 0.000000 0.000000 -0.404688
				CHANNELS 3 Xrotation Yrotation Zrotation
				JOINT RightToeBase
				{
					OFFSET 0.000000 -0.126496 -0.046041
					CHANNELS 3 Xrotation Yrotation Zrotation
					End Site
					{
						OFFSET 0.000000 0.000000 0.000000
					}
				}
			}
		}
	}
	JOINT LeftUpLeg
	{
		OFFSET 0.086512 0.000000 -0.025273
		CHANNELS 3 Xrotation Yrotation Zrotation
		JOINT LeftLeg
		{
			OFFSET 0.000000 0.000000 -0.433119
			CHANNELS 3 Xrotation Yrotation Zrotation
			JOINT LeftFoot
			{
				OFFSET 0.000000 0.000000 -0.404688
				CHANNELS 3 Xrotation Yrotation Zrotation
				JOINT LeftToeBase
				{
					OFFSET 0.000000 -0.126496 -0.046041
					CHANNELS 3 Xrotation Yrotation Zrotation
					End Site
					{
						OFFSET 0.000000 0.000000 0.000000
					}
				}
			}
		}
	}
}
MOTION
Frames: 6
Frame Time: 0.033333
0.135941 -1.661076 0.899488 -2.618800 0.448400 -179.699000 -1.160800 0.042700 0.110100 -0.178300 -0.552400 0.081500 0.554900 -0.601600 2.099300 0.050700 -0.328100 0.482200 -5.588600 1.587900 3.172900 -2.375600 3.980500 1.852800 4.509300 -10.407100 6.747800 36.377300 -45.684300 44.082400 0.000000 0.000000 20.197700 -25.402000 6.835300 -0.856100 0.000000 0.000000 0.000000 0.000000 0.000000 0.000000 11.331900 8.297200 -6.059400 46.819200 32.914300 -55.291500 0.000000 0.000000 -26.856800 -24.159200 -4.730100 1.571400 0.000000 0.000000 0.000000 0.000000 0.000000 0.000000 -2.530000 2.413400 -38.407000 4.983800 0.000000 0.000000 -10.170400 -2.511800 -4.819800 3.461000 0.000000 0.000000 -0.127900 -2.141100 28.253100 3.786100 0.000000 0.000000 -9.209100 17.714400 18.770300 -2.665200 0.000000 0.000000 
0.135539 -1.660855 0.899310 -2.576000 0.431600 179.932400 -1.204200 -0.055700 0.155700 -0.235000 -0.637700 0.089000 0.618800 -0.578300 2.271900 0.067000 -0.320800 0.493500 -5.337500 1.730900 3.364000 -2.380300 4.075600 1.898300 5.320000 -9.926000 6.217900 40.514800 -47.071600 46.915500 0.000000 0.000000 17.562700 -24.079900 6.305500 -1.472000 0.000000 0.000000 0.000000 0.000000 0.000000 0.000000 12.460100 7.771100 -5.481900 51.324600 33.318200 -58.975900 0.000000 0.000000 -23.365500 -24.372500 -3.831200 2.445900 0.000000 0.000000 0.000000 0.000000 0.000000 0.000000 -2.419400 2.356800 -38.502000 4.759500 0.000000 0.000000 -10.092400 -2.597100 -4.347400 3.535600 0.000000 0.000000 -0.022600 -2.129200 28.556000 3.803000 0.000000 0.000000 -9.371500 17.652500 18.820400 -2.590800 0.000000 0.000000 
0.134978 -1.660812 0.899076 -2.509800 0.422800 179.617200 -1.238800 -0.181200 0.202600 -0.295500 -0.741000 0.092200 0.716600 -0.520000 2.405300 0.081700 -0.296000 0.485000 -5.120800 1.838900 3.523200 -2.420000 4.138400 1.972400 6.140500 -9.304300 5.624900 44.300700 -47.802100 49.329200 0.000000 0.000000 16.757900 -22.994800 6.168000 -1.822800 0.000000 0.000000 0.000000 0.000000 0.000000 0.000000 13.571800 7.344600 -4.909700 55.003300 33.346300 -61.962200 0.000000 0.000000 -21.065200 -23.326400 -2.451700 3.293600 0.000000 0.000000 0.000000 0.000000 0.000000 0.000000 -2.289800 2.319400 -38.594900 4.536400 0.000000 0.000000 -10.025000 -2.649400 -3.918900 3.589200 0.000000 0.000000 0.132100 -2.079300 28.953900 3.726100 0.000000 0.000000 -9.470200 17.610300 18.721400 -2.512200 0.000000 0.000000 
0.134272 -1.660977 0.898888 -2.436100 0.427200 179.378700 -1.284800 -0.333800 0.235200 -0.360900 -0.847000 0.096100 0.841200 -0.430100 2.479200 0.100800 -0.261100 0.457500 -4.877100 1.941500 3.655300 -2.520600 4.163500 2.053500 6.813300 -8.663500 5.060100 48.156100 -47.414600 51.473400 0.000000 0.000000 17.545700 -22.497100 6.668600 -1.976800 0.000000 0.000000 0.000000 0.000000 0.000000 0.000000 14.676700 7.057800 -4.322600 57.881100 32.510800 -64.135500 0.000000 0.000000 -20.172100 -21.133200 -0.962600 3.902000 0.000000 0.000000 0.000000 0.000000 0.000000 0.000000 -2.182200 2.323800 -38.663000 4.372100 0.000000 0.000000 -9.964700 -2.696400 -3.596200 3.621200 0.000000 0.000000 0.341800 -1.972400 29.452900 3.485900 0.000000 0.000000 -9.418200 17.605500 18.443600 -2.443100 0.000000 0.000000 
0.133515 -1.661267 0.898764 -2.303700 0.436700 179.185300 -1.301900 -0.498600 0.238800 -0.420700 -0.946400 0.099100 0.985400 -0.342900 2.541300 0.129200 -0.219100 0.429600 -4.596800 2.048700 3.762200 -2.653800 4.197400 2.116200 7.306800 -8.148500 4.621400 51.877700 -45.816700 53.188500 0.000000 0.000000 19.376300 -22.542500 7.207900 -2.039500 0.000000 0.000000 0.000000 0.000000 0.000000 0.000000 15.495800 6.927400 -3.853100 59.956300 31.359000 -65.240300 0.000000 0.000000 -20.637000 -20.644000 -0.057900 4.824100 0.000000 0.000000 0.000000 0.000000 0.000000 0.000000 -2.071000 2.371000 -38.603100 4.331000 0.000000 0.000000 -9.938300 -2.715300 -3.450500 3.646200 0.000000 0.000000 0.675100 -1.816300 30.074100 3.064600 0.000000 0.000000 -9.209900 17.639900 17.991900 -2.354800 0.000000 0.000000 
0.132781 -1.662003 0.898629 -2.222500 0.453900 179.021000 -1.368000 -0.644500 0.208400 -0.475500 -1.019900 0.094100 1.142700 -0.304800 2.594700 0.171200 -0.179600 0.417400 -4.330200 2.158900 3.864600 -2.762800 4.273500 2.182000 7.667500 -7.821100 4.335600 54.781700 -43.619800 54.232400 0.000000 0.000000 21.468400 -22.543000 7.317400 -1.893700 0.000000 0.000000 0.000000 0.000000 0.000000 0.000000 15.867900 6.937300 -3.597500 61.069800 30.890500 -65.243200 0.000000 0.000000 -22.010100 -22.995400 -0.287500 6.085400 0.000000 0.000000 0.000000 0.000000 0.000000 0.000000 -2.117600 2.468300 -38.291300 4.469800 0.000000 0.000000 -9.986900 -2.627700 -3.570800 3.673700 0.000000 0.000000 0.949700 -1.635900 30.701500 2.575800 0.000000 0.000000 -8.942200 17.673700 17.498700 -2.246400 0.000000 0.000000 
